/* XPM */
static char *_575_c84a54236117938251704917f6b1ac834c93cea36eb433a5af02096ae946edbf[] = {
/* columns rows colors chars-per-pixel */
"16 16 33 1 ",
"  c #F36B00",
". c #F76A00",
"X c #F4850F",
"o c #F48627",
"O c #F59925",
"+ c #F48134",
"@ c #FF8F44",
"# c #F9A54D",
"$ c #FFAB57",
"% c #FFAF68",
"& c #FCB571",
"* c #F7BB84",
"= c #FFCE97",
"- c #FFCB9A",
"; c #F8C4A9",
": c #FACEAB",
"> c #FFD5A3",
", c #FBD1A4",
"< c #F9CEB0",
"1 c #FFE4BD",
"2 c #F9E4CC",
"3 c #E9E1D5",
"4 c #FFEFD2",
"5 c #F9E9D6",
"6 c #DBECED",
"7 c #F8F4EB",
"8 c #E6FFFF",
"9 c #FDFCFE",
"0 c #FDFFFF",
"q c #FFFFFE",
"w c #FEFFFF",
"e c white",
"r c None",
/* pixels */
"rrrrrrrrrrrrrrrr",
"rrrrrrrrrrrrrrrr",
"rrrrrrrrrrrrrrrr",
"rrrrrrrrrrrrrrrr",
"rrrrrrrrrrrrrrrr",
"rrrrrr1%eeqrrrrr",
"rrrrr7.,w9wrrrrr",
"rrrrr$*5+0e3rrrr",
"rrrrr-oO:<&2rrrr",
"rrrrre#X; >rrrrr",
"rrrrrre=@48rrrrr",
"rrrrrrrr6rrrrrrr",
"rrrrrrrrrrrrrrrr",
"rrrrrrrrrrrrrrrr",
"rrrrrrrrrrrrrrrr",
"rrrrrrrrrrrrrrrr"
};
