/* XPM */
static char *_9817_6e968fd04ab0b65c2588c4f2e942544d6aeb89aa19bf49f9d4f2af137637ce59[] = {
/* columns rows colors chars-per-pixel */
"32 32 123 2 ",
"   c #F35200",
".  c #F45400",
"X  c #F35900",
"o  c #F25B00",
"O  c #F55C00",
"+  c #F26900",
"@  c #F36F00",
"#  c #F56C00",
"$  c #F46E00",
"%  c #F56E00",
"&  c #F37000",
"*  c #F47000",
"=  c #F57000",
"-  c #F67000",
";  c #F67500",
":  c #F47600",
">  c #F36B11",
",  c #F5771C",
"<  c #F5771D",
"1  c #F47A24",
"2  c #F3792F",
"3  c #F58D00",
"4  c #F58310",
"5  c #F58C11",
"6  c #F78816",
"7  c #F38D1C",
"8  c #F88B1A",
"9  c #F59610",
"0  c #F49B1A",
"q  c #F49527",
"w  c #F59629",
"e  c #F4833E",
"r  c #F49632",
"t  c #F6A020",
"y  c #F9A634",
"u  c #F2A338",
"i  c #F4A43F",
"p  c #F5924C",
"a  c #F6964E",
"s  c #F79B48",
"d  c #F2A34E",
"f  c #FAA348",
"g  c #F5A94A",
"h  c #F6A84D",
"j  c #F5A753",
"k  c #F7B154",
"l  c #FAC793",
"z  c #F7CD96",
"x  c #F4D09B",
"c  c #F8C6A0",
"v  c #F4CEA4",
"b  c #F5CBAE",
"n  c #FCD1A2",
"m  c #F8D0A8",
"M  c #F8D2AD",
"N  c #F6CEBD",
"B  c #FDDCB9",
"V  c #FCDFB8",
"C  c #DDD7D3",
"Z  c #FBD9C2",
"A  c #F8E2C0",
"S  c #FBE3C0",
"D  c #F8E3CA",
"F  c #FFE7D2",
"G  c #F5EAD2",
"H  c #F9EAD3",
"J  c #F8E2DB",
"K  c #FDEEDC",
"L  c #FBF2D1",
"P  c #DCEBF4",
"I  c #F9EDE3",
"U  c #FBEFE9",
"Y  c #FAF3E2",
"T  c #FBF3E9",
"R  c #F9F5EC",
"E  c #FAFFEA",
"W  c #FFF9EE",
"Q  c #FFFFED",
"!  c #E4F5FF",
"~  c #E9FFFF",
"^  c #ECFDFF",
"/  c #F6F6F7",
"(  c #FBF7F1",
")  c #F9F7F6",
"_  c #F8F7F7",
"`  c #FFF7F5",
"'  c #FBF9F5",
"]  c #FAFAF5",
"[  c #F8F8F7",
"{  c #F9F8F7",
"}  c #FBFDF6",
"|  c #FFFEF6",
" . c #F7F8F9",
".. c azure",
"X. c #F1FFFF",
"o. c #F4FCFF",
"O. c #F5FFFF",
"+. c #F6FEFF",
"@. c #F7FEFF",
"#. c #F6FFFF",
"$. c #F7FFFF",
"%. c #F9F8F8",
"&. c #F9F9F9",
"*. c #FAF9F8",
"=. c #FAF9F9",
"-. c #FBFAF9",
";. c gray98",
":. c #FFFFF8",
">. c #F8FEFD",
",. c #F9FEFF",
"<. c #F9FFFF",
"1. c #FAFFFF",
"2. c #FBFFFF",
"3. c #FDFCFC",
"4. c #FDFEFD",
"5. c #FDFDFE",
"6. c #FEFDFE",
"7. c #FCFFFF",
"8. c #FDFFFF",
"9. c #FEFEFE",
"0. c #FEFFFF",
"q. c white",
"w. c None",
/* pixels */
"w.w.w.w.w.w.w.w.w.w.w.w.w.w.w.w.w.w.w.w.w.w.w.w.w.w.w.w.w.w.w.w.",
"w.w.w.w.w.w.w.w.w.w.w.w.w.w.w.w.w.w.w.w.w.w.w.w.w.w.w.w.w.w.w.w.",
"w.w.w.w.w.w.w.w.w.w.w.w.w.w.w.w.w.w.w.w.w.w.w.w.w.w.w.w.w.w.w.w.",
"w.w.w.w.w.w.w.w.w.w.w.w.w.w.w.w.w.w.w.w.w.w.w.w.w.w.w.w.w.w.w.w.",
"w.w.w.w.w.w.w.w.w.w.w.w.w.w.w.w.w.w.w.w.w.w.w.w.w.w.w.w.w.w.w.w.",
"w.w.w.w.w.w.w.w.w.w.w.w.w.w.w.w.w.w.w.w.w.w.w.w.w.w.w.w.w.w.w.w.",
"w.w.w.w.w.w.w.w.w.w.w.w.w.w.w.w.w.w.w.w.w.w.w.w.w.w.w.w.w.w.w.w.",
"w.w.w.w.w.w.w.w.w.w.w.w.w.w.w.w.w.w.w.w.w.w.w.w.w.w.w.w.w.w.w.w.",
"w.w.w.w.w.w.w.w.w.w.w.w.w.w.w.w.w.w.w.w.w.w.w.w.w.w.w.w.w.w.w.w.",
"w.w.w.w.w.w.w.w.w.w.w.w.w.w.:.q.q.q.P w.w.w.w.w.w.w.w.w.w.w.w.w.",
"w.w.w.w.w.w.w.w.w.w.w.w.q.q.f v @. .q.7.1.w.w.w.w.w.w.w.w.w.w.w.",
"w.w.w.w.w.w.w.w.w.w.w.q.$.e o A 0.) { %./ F w.w.w.w.w.w.w.w.w.w.",
"w.w.w.w.w.w.w.w.w.w.O.o.j - 6 K 0.6.;.4.-.q.w.w.w.w.w.w.w.w.w.w.",
"w.w.w.w.w.w.w.w.w.w.| g O 0 L q.7.7.&._ q.[ q.w.w.w.w.w.w.w.w.w.",
"w.w.w.w.w.w.w.w.w.! S ; < N <.} p b 9.3.*.=.,.w.w.w.w.w.w.w.w.w.",
"w.w.w.w.w.w.w.w.w.5.V $ x 8.( u   > ] 0.0.2.O.w.w.w.w.w.w.w.w.w.",
"w.w.w.w.w.w.w.w.w.^ B % q M h & 4 Z 2.>.Y D R w.w.w.w.w.w.w.w.w.",
"w.w.w.w.w.w.w.w.w.0.' a . 5 9 w H q.U 2 + 7 T w.w.w.w.w.w.w.w.w.",
"w.w.w.w.w.w.w.w.w.` 2.0.s 3 t c q.I r : 8 G 7.w.w.w.w.w.w.w.w.w.",
"w.w.w.w.w.w.w.w.w.w.+.1.#.k # 1 m i X y E X.Q w.w.w.w.w.w.w.w.w.",
"w.w.w.w.w.w.w.w.w.w.w.8.#.$.d * @ = , J ..7.w.w.w.w.w.w.w.w.w.w.",
"w.w.w.w.w.w.w.w.w.w.w.w.q.q.q.n z l W q.1.w.w.w.w.w.w.w.w.w.w.w.",
"w.w.w.w.w.w.w.w.w.w.w.w.w.C 2.2.q.q.~ w.w.w.w.w.w.w.w.w.w.w.w.w.",
"w.w.w.w.w.w.w.w.w.w.w.w.w.w.w.w.w.w.w.w.w.w.w.w.w.w.w.w.w.w.w.w.",
"w.w.w.w.w.w.w.w.w.w.w.w.w.w.w.w.w.w.w.w.w.w.w.w.w.w.w.w.w.w.w.w.",
"w.w.w.w.w.w.w.w.w.w.w.w.w.w.w.w.w.w.w.w.w.w.w.w.w.w.w.w.w.w.w.w.",
"w.w.w.w.w.w.w.w.w.w.w.w.w.w.w.w.w.w.w.w.w.w.w.w.w.w.w.w.w.w.w.w.",
"w.w.w.w.w.w.w.w.w.w.w.w.w.w.w.w.w.w.w.w.w.w.w.w.w.w.w.w.w.w.w.w.",
"w.w.w.w.w.w.w.w.w.w.w.w.w.w.w.w.w.w.w.w.w.w.w.w.w.w.w.w.w.w.w.w.",
"w.w.w.w.w.w.w.w.w.w.w.w.w.w.w.w.w.w.w.w.w.w.w.w.w.w.w.w.w.w.w.w.",
"w.w.w.w.w.w.w.w.w.w.w.w.w.w.w.w.w.w.w.w.w.w.w.w.w.w.w.w.w.w.w.w.",
"w.w.w.w.w.w.w.w.w.w.w.w.w.w.w.w.w.w.w.w.w.w.w.w.w.w.w.w.w.w.w.w."
};
